<svg xmlns="http://www.w3.org/2000/svg" width="512" height="512" viewBox="0 0 512 512"  data-bbox="94.91083995253604 34.89137890301279 323.30088485496157 323.30081049659316"><rect data-uid="o_f73l496ci_4" x="0" y="0" width="512" height="512" fill="transparent"></rect><g transform="matrix(-2.6210326080849, 2.5572750450122776, -2.5572750450122776, -2.6210326080849, 583.856459041674, 182.47540261832344)" fill="rgba(255, 152, 0, 1)" data-uid="o_f73l496ci_5"><path fill="rgba(255, 152, 0, 1)" d="M27.752 49a.946.946 0 0 0 0 .377A21.421 21.421 0 0 0 49.177 70.64H49.2A21.466 21.466 0 1 0 27.752 49Zm39.3-1.562H59.724a10.626 10.626 0 0 0-1.847-4.465l5.182-5.182A17.78 17.78 0 0 1 67.055 47.437Zm-4 13.147L57.877 55.4a10.625 10.625 0 0 0 1.847-4.465h7.331A17.778 17.778 0 0 1 63.059 60.584ZM31.327 50.937H38.65A10.626 10.626 0 0 0 40.5 55.4l-5.18 5.18A17.87 17.87 0 0 1 31.327 50.937Zm17.859-8.946A7.2 7.2 0 1 1 44.1 44.1 7.152 7.152 0 0 1 49.187 41.991ZM42.969 57.879a10.561 10.561 0 0 0 4.467 1.85v7.326a17.782 17.782 0 0 1-9.648-4Zm7.967 1.85A10.56 10.56 0 0 0 55.4 57.878l5.18 5.18a17.779 17.779 0 0 1-9.648 4ZM55.4 40.5a10.56 10.56 0 0 0-4.468-1.851V31.319a17.779 17.779 0 0 1 9.648 4Zm-7.968-1.851a10.561 10.561 0 0 0-4.467 1.85l-5.181-5.18a17.782 17.782 0 0 1 9.648-4ZM40.5 42.972a10.626 10.626 0 0 0-1.847 4.465H31.327a17.871 17.871 0 0 1 3.989-9.645Zm-7.562-12.51a1.749 1.749 0 0 1 0 2.475 22.973 22.973 0 1 0 10.371-5.97 1.75 1.75 0 0 1-.893-3.385 26.589 26.589 0 0 1 25.5 6.88 26.482 26.482 0 1 1-37.451 0A1.749 1.749 0 0 1 32.936 30.461Zm1.889-1.492a1.75 1.75 0 0 1 .583-2.4q.379-.231.764-.448a1.75 1.75 0 0 1 1.723 3.047q-.334.189-.664.39a1.748 1.748 0 0 1-2.405-.583ZM32.507 85.451l24.408 24.408a1.75 1.75 0 1 1-2.475 2.475L22.312 80.206a1.731 1.731 0 0 1-.125-.153c-.025-.031-.053-.06-.076-.093a1.734 1.734 0 0 1-.284-.7c-.006-.037-.007-.075-.011-.112a1.753 1.753 0 0 1-.007-.274c0-.022 0-.043 0-.064a2.025 2.025 0 0 0-2.239-2.239 1.728 1.728 0 0 1-1.488-.6 40.921 40.921 0 0 1-5.73-8.654 1.752 1.752 0 0 1 .033-1.61A2.025 2.025 0 0 0 11.2 62.757a1.75 1.75 0 0 1-1.14-1.14 41.136 41.136 0 0 1-1.806-9.37 1.75 1.75 0 0 1 .629-1.478 2.024 2.024 0 0 0 0-3.167 1.751 1.751 0 0 1-.628-1.477 41.093 41.093 0 0 1 2.062-10.167 1.75 1.75 0 0 1 1.165-1.117 2.026 2.026 0 0 0 1.245-2.925 1.749 1.749 0 0 1 0-1.616 41.031 41.031 0 0 1 5.355-7.894 1.736 1.736 0 0 1 1.488-.6 2.026 2.026 0 0 0 2.239-2.239 1.748 1.748 0 0 1 .6-1.489 40.977 40.977 0 0 1 8.652-5.73 1.752 1.752 0 0 1 1.611.033A2.024 2.024 0 0 0 35.616 11.2a1.749 1.749 0 0 1 1.14-1.14 41.194 41.194 0 0 1 9.37-1.805 1.75 1.75 0 0 1 .26 3.49 37.683 37.683 0 0 0-7.809 1.418 5.507 5.507 0 0 1-6.684 2.687A37.527 37.527 0 0 0 25.3 20.218 5.508 5.508 0 0 1 20.218 25.3a37.5 37.5 0 0 0-4.009 5.9 5.511 5.511 0 0 1-2.826 6.64 37.606 37.606 0 0 0-1.57 7.749 5.508 5.508 0 0 1 0 7.188A37.688 37.688 0 0 0 13.164 59.8a5.508 5.508 0 0 1 2.687 6.684 37.376 37.376 0 0 0 4.367 6.593A5.507 5.507 0 0 1 25.3 78.156a37.531 37.531 0 0 0 5.9 4.008 5.51 5.51 0 0 1 6.641 2.827 37.66 37.66 0 0 0 8.541 1.637c.032 0 .062.012.094.017a1.734 1.734 0 0 1 .185.033c.054.013.105.029.157.047a1.594 1.594 0 0 1 .315.145c.047.027.092.056.137.088a1.733 1.733 0 0 1 .145.119c.024.021.051.037.074.06l12.94 12.941a1.75 1.75 0 1 1-2.475 2.475l-12.5-12.5a41.082 41.082 0 0 1-9.5-1.991 1.751 1.751 0 0 1-1.117-1.167 2.057 2.057 0 0 0-1.159-1.33A2.007 2.007 0 0 0 32.507 85.451Zm31.313 31.312a1.75 1.75 0 1 1-2.475 2.475l-2.207-2.207a1.75 1.75 0 0 1 2.475-2.475ZM84.8 107.885a1.75 1.75 0 1 1-2.475 2.475L66.484 94.515a1.75 1.75 0 0 1 2.475-2.475Zm4.473 4.473a1.75 1.75 0 0 1-2.477 2.474l-.656-.657A1.75 1.75 0 0 1 88.62 111.7Zm20.582-55.442L85.88 32.937a2 2 0 0 0 1.294 2.679 1.75 1.75 0 0 1 1.14 1.14 41.136 41.136 0 0 1 1.806 9.37A1.75 1.75 0 0 1 89.49 47.6a2.024 2.024 0 0 0 0 3.166 1.75 1.75 0 0 1 .629 1.478 41.167 41.167 0 0 1-1.506 8.335L110.36 82.329a1.75 1.75 0 1 1-2.475 2.475L86.695 63.613a2 2 0 0 0-1.049 2.844 1.748 1.748 0 0 1 0 1.615 40.935 40.935 0 0 1-5.355 7.895A1.735 1.735 0 0 1 79 76.561l23.729 24.179a1.75 1.75 0 1 1-2.5 2.451L76.558 79.07a1.741 1.741 0 0 1-.592 1.224A41.1 41.1 0 0 1 70.3 84.4c-.972.583-1.977 1.132-2.988 1.629A1.748 1.748 0 0 1 65.7 85.99a2.025 2.025 0 0 0-2.944 1.184 1.749 1.749 0 0 1-1.14 1.14 41.178 41.178 0 0 1-7.045 1.566 1.75 1.75 0 1 1-.457-3.47 37.737 37.737 0 0 0 5.681-1.2 5.509 5.509 0 0 1 6.685-2.687c.683-.354 1.358-.732 2.018-1.128a37.6 37.6 0 0 0 4.575-3.239 5.522 5.522 0 0 1 1.6-3.484l.01-.008 0 0c.011-.01.023-.017.034-.028a5.522 5.522 0 0 1 3.439-1.559 37.467 37.467 0 0 0 4.009-5.9 5.508 5.508 0 0 1 2.825-6.64 37.643 37.643 0 0 0 1.571-7.748 5.509 5.509 0 0 1 0-7.188 37.687 37.687 0 0 0-1.352-7.015 5.509 5.509 0 0 1-2.687-6.685A37.391 37.391 0 0 0 78.155 25.3a5.509 5.509 0 0 1-5.082-5.083 37.529 37.529 0 0 0-5.9-4.008 5.509 5.509 0 0 1-6.64-2.826 37.655 37.655 0 0 0-8.541-1.638 1.75 1.75 0 0 1 .26-3.49 41.121 41.121 0 0 1 10.167 2.063 1.752 1.752 0 0 1 1.117 1.165 2.024 2.024 0 0 0 2.924 1.245 1.752 1.752 0 0 1 1.615 0 40.976 40.976 0 0 1 7.9 5.355 1.751 1.751 0 0 1 .6 1.489A2.025 2.025 0 0 0 78.8 21.808c.022 0 .043 0 .066 0a1.746 1.746 0 0 1 .258.006c.046 0 .092.005.138.013a1.753 1.753 0 0 1 .29.079c.04.014.08.029.119.046a1.726 1.726 0 0 1 .28.155c.039.027.074.06.111.091a1.722 1.722 0 0 1 .139.114l32.128 32.128a1.75 1.75 0 1 1-2.475 2.475Zm9.379 6.9a1.749 1.749 0 0 1-2.475 0l-2.207-2.207a1.75 1.75 0 0 1 2.475-2.475l2.207 2.207A1.749 1.749 0 0 1 119.237 63.819Zm-24.6-13.779 7.919 7.919a1.75 1.75 0 1 1-2.475 2.475l-7.919-7.919a1.75 1.75 0 0 1 2.475-2.475Zm20.2 36.761a1.75 1.75 0 0 1-2.477 2.474l-.656-.657a1.75 1.75 0 0 1 2.477-2.474Zm-4.915 21.232a1.75 1.75 0 1 1-2.5 2.452l-2.916-2.969a1.75 1.75 0 1 1 2.5-2.452Z" transform="matrix(1, 0, 0, 1, 0, 0)" data-uid="o_f73l496ci_6"></path></g><path text="ODO24" fill="#ff9800" space="preserve" text-anchor="middle" offset="0.5" font-scale="contain" font-size="48" font-family="Michroma" transform="matrix(1.7221705325095438, 0, 0, 1.7221705325095438, 256, 440.1645283575038)" data-fl-textpath="" font-weight="400" font-style="normal" data-uid="o_f73l496ci_7" d="M-105.77-36.75L-92.23-36.75Q-88.1-36.75 -85.28-36.25Q-82.45-35.74 -80.62-34.72Q-78.8-33.7 -77.81-32.16Q-76.83-30.61 -76.37-28.52Q-75.91-26.44 -75.83-23.81Q-75.75-21.19 -75.75-18L-75.75-18Q-75.75-14.81 -75.83-12.19Q-75.91-9.56 -76.37-7.48Q-76.83-5.39 -77.81-3.84Q-78.8-2.3 -80.62-1.28Q-82.45-0.26 -85.28 0.25Q-88.1 0.75 -92.23 0.75L-92.23 0.75L-105.77 0.75Q-109.9 0.75 -112.72 0.25Q-115.55-0.26 -117.37-1.28Q-119.2-2.3 -120.2-3.84Q-121.2-5.39 -121.65-7.48Q-122.11-9.56 -122.18-12.19Q-122.25-14.81 -122.25-18L-122.25-18Q-122.25-21.19 -122.18-23.81Q-122.11-26.44 -121.65-28.52Q-121.2-30.61 -120.2-32.16Q-119.2-33.7 -117.37-34.72Q-115.55-35.74 -112.72-36.25Q-109.9-36.75 -105.77-36.75L-105.77-36.75ZM-105.77-3L-92.23-3Q-89.25-3 -87.2-3.18Q-85.15-3.35 -83.81-3.89Q-82.48-4.43 -81.75-5.44Q-81.02-6.45 -80.7-8.11Q-80.37-9.77 -80.31-12.2Q-80.25-14.63 -80.25-18L-80.25-18Q-80.25-21.38 -80.31-23.8Q-80.37-26.23 -80.7-27.89Q-81.02-29.55 -81.75-30.56Q-82.48-31.57 -83.8-32.11Q-85.12-32.65 -87.18-32.82Q-89.23-33 -92.23-33L-92.23-33L-105.77-33Q-108.77-33 -110.82-32.82Q-112.87-32.65 -114.21-32.11Q-115.55-31.57 -116.27-30.56Q-117-29.55 -117.33-27.89Q-117.66-26.23 -117.7-23.8Q-117.75-21.38 -117.75-18L-117.75-18Q-117.75-14.63 -117.69-12.2Q-117.63-9.77 -117.3-8.11Q-116.98-6.45 -116.26-5.44Q-115.55-4.43 -114.21-3.89Q-112.87-3.35 -110.82-3.18Q-108.77-3 -105.77-3L-105.77-3ZM-63.75-3.75L-41.27-3.75Q-38.3-3.75 -36.23-3.91Q-34.17-4.08 -32.84-4.58Q-31.5-5.09 -30.77-6.05Q-30.05-7.01 -29.71-8.59Q-29.37-10.17 -29.31-12.48Q-29.25-14.79 -29.25-18L-29.25-18Q-29.25-21.21 -29.31-23.52Q-29.37-25.83 -29.71-27.41Q-30.05-28.99 -30.77-29.95Q-31.5-30.91 -32.84-31.42Q-34.17-31.92 -36.22-32.09Q-38.27-32.25 -41.27-32.25L-41.27-32.25L-63.75-32.25L-63.75-3.75ZM-41.27 0L-68.25 0L-68.25-36L-41.27-36Q-37.15-36 -34.32-35.52Q-31.5-35.04 -29.66-34.05Q-27.82-33.07 -26.82-31.59Q-25.83-30.12 -25.37-28.11Q-24.91-26.11 -24.83-23.59Q-24.75-21.07 -24.75-18L-24.75-18Q-24.75-14.93 -24.83-12.41Q-24.91-9.89 -25.37-7.89Q-25.83-5.88 -26.82-4.41Q-27.82-2.93 -29.66-1.95Q-31.5-0.96 -34.32-0.48Q-37.15 0 -41.27 0L-41.27 0ZM-2.27-36.75L 11.27-36.75Q 15.4-36.75  18.22-36.25Q 21.05-35.74  22.88-34.72Q 24.7-33.7  25.69-32.16Q 26.67-30.61  27.13-28.52Q 27.59-26.44  27.67-23.81Q 27.75-21.19  27.75-18L 27.75-18Q 27.75-14.81  27.67-12.19Q 27.59-9.56  27.13-7.48Q 26.67-5.39  25.69-3.84Q 24.7-2.3  22.88-1.28Q 21.05-0.26  18.22 0.25Q 15.4 0.75  11.27 0.75L 11.27 0.75L-2.27 0.75Q-6.4 0.75 -9.22 0.25Q-12.05-0.26 -13.87-1.28Q-15.7-2.3 -16.7-3.84Q-17.7-5.39 -18.15-7.48Q-18.61-9.56 -18.68-12.19Q-18.75-14.81 -18.75-18L-18.75-18Q-18.75-21.19 -18.68-23.81Q-18.61-26.44 -18.15-28.52Q-17.7-30.61 -16.7-32.16Q-15.7-33.7 -13.87-34.72Q-12.05-35.74 -9.22-36.25Q-6.4-36.75 -2.27-36.75L-2.27-36.75ZM-2.27-3L 11.27-3Q 14.25-3  16.3-3.18Q 18.35-3.35  19.69-3.89Q 21.02-4.43  21.75-5.44Q 22.48-6.45  22.8-8.11Q 23.13-9.77  23.19-12.2Q 23.25-14.63  23.25-18L 23.25-18Q 23.25-21.38  23.19-23.8Q 23.13-26.23  22.8-27.89Q 22.48-29.55  21.75-30.56Q 21.02-31.57  19.7-32.11Q 18.38-32.65  16.32-32.82Q 14.27-33  11.27-33L 11.27-33L-2.27-33Q-5.27-33 -7.32-32.82Q-9.37-32.65 -10.71-32.11Q-12.05-31.57 -12.77-30.56Q-13.5-29.55 -13.83-27.89Q-14.16-26.23 -14.2-23.8Q-14.25-21.38 -14.25-18L-14.25-18Q-14.25-14.63 -14.19-12.2Q-14.13-9.77 -13.8-8.11Q-13.48-6.45 -12.76-5.44Q-12.05-4.43 -10.71-3.89Q-9.37-3.35 -7.32-3.18Q-5.27-3 -2.27-3L-2.27-3ZM 33.75 0L 33.75-4.5Q 33.75-5.91  33.82-7.3Q 33.89-8.7  34.14-9.97Q 34.38-11.25  34.86-12.38Q 35.34-13.5  36.18-14.36Q 37.01-15.21  38.25-15.77Q 39.49-16.34  41.25-16.5L 41.25-16.5L 65.25-18.75Q 66.38-18.84  67.22-19.08Q 68.06-19.31  68.61-19.98Q 69.16-20.65  69.45-21.94Q 69.73-23.23  69.73-25.48L 69.73-25.48Q 69.73-27.35  69.45-28.64Q 69.16-29.93  68.51-30.77Q 67.85-31.62  66.74-32.06Q 65.63-32.51  63.96-32.72Q 62.3-32.93  60.02-32.96Q 57.75-33  54.75-33L 54.75-33Q 50.63-33  47.8-32.85Q 44.98-32.7  43.14-32.3Q 41.3-31.9  40.31-31.22Q 39.33-30.54  38.87-29.45Q 38.41-28.36  38.33-26.84Q 38.25-25.31  38.25-23.25L 38.25-23.25L 33.75-23.25Q 33.75-26.63  34.37-28.93Q 34.99-31.24  36.2-32.74Q 37.41-34.24  39.19-35.06Q 40.97-35.88  43.3-36.26Q 45.63-36.63  48.5-36.69Q 51.38-36.75  54.75-36.75L 54.75-36.75Q 58.13-36.75  60.88-36.64Q 63.63-36.54  65.8-36.16Q 67.97-35.79  69.56-35.06Q 71.16-34.34  72.2-33.08Q 73.24-31.83  73.75-29.98Q 74.25-28.13  74.25-25.5L 74.25-25.5Q 74.25-23.25  73.92-21.41Q 73.59-19.57  72.75-18.21Q 71.91-16.85  70.45-16.03Q 69-15.21  66.75-15L 66.75-15L 42.75-12.75Q 41.04-12.59  40.13-12.12Q 39.21-11.65  38.79-10.63Q 38.37-9.61  38.31-7.95Q 38.25-6.28  38.25-3.75L 38.25-3.75L 73.5-3.75L 73.5 0L 33.75 0ZM 122.25-7.5L 116.25-7.5L 116.25 0L 111.75 0L 111.75-7.5L 80.25-7.5L 80.25-12L 110.25-36L 116.25-36L 116.25-11.25L 122.25-11.25L 122.25-7.5ZM 84.75-11.25L 111.75-11.25L 111.75-33L 84.75-11.25Z"></path></svg>