<?xml version="1.0" encoding="UTF-8" standalone="no"?>
<svg
   width="512"
   height="512"
   viewBox="0 0 512 512"
   data-bbox="94.91083995253604 34.89137890301279 323.30088485496157 323.30081049659316"
   version="1.1"
   id="svg17"
   sodipodi:docname="logo_v2.svg"
   inkscape:version="1.2.2 (b0a8486541, 2022-12-01)"
   xmlns:inkscape="http://www.inkscape.org/namespaces/inkscape"
   xmlns:sodipodi="http://sodipodi.sourceforge.net/DTD/sodipodi-0.dtd"
   xmlns="http://www.w3.org/2000/svg"
   xmlns:svg="http://www.w3.org/2000/svg">
  <defs
     id="defs21" />
  <sodipodi:namedview
     id="namedview19"
     pagecolor="#ffffff"
     bordercolor="#000000"
     borderopacity="0.25"
     inkscape:showpageshadow="2"
     inkscape:pageopacity="0.0"
     inkscape:pagecheckerboard="0"
     inkscape:deskcolor="#d1d1d1"
     showgrid="false"
     inkscape:zoom="1.1421432"
     inkscape:cx="-99.812355"
     inkscape:cy="273.60843"
     inkscape:window-width="1920"
     inkscape:window-height="1008"
     inkscape:window-x="0"
     inkscape:window-y="0"
     inkscape:window-maximized="1"
     inkscape:current-layer="svg17" />
  <rect
     data-uid="o_f73l496ci_4"
     x="0"
     y="0"
     width="512"
     height="512"
     fill="transparent"
     id="rect9" />
  <g
     transform="matrix(-2.6210326080849, 2.5572750450122776, -2.5572750450122776, -2.6210326080849, 583.856459041674, 182.47540261832344)"
     fill="rgb(255, 255, 255)"
     data-uid="o_f73l496ci_5"
     id="g13">
    <path
       fill="#ffffff"
       d="m 41.455499,47.743616 c -0.04348,0.211905 -0.04392,0.430225 -0.0013,0.641958 0.107964,20.042261 16.365914,36.178367 36.407052,36.134216 l 0.03916,-7.8e-5 C 110.39986,84.481262 126.84068,45.222633 104.0113,22.185825 81.181942,-0.85098191 41.783582,15.241484 41.455499,47.743616 Z m 66.919031,-2.792871 -12.476942,0.02482 C 95.4525,42.234218 94.381597,39.634759 92.767933,37.378784 l 8.840627,-8.841492 c 3.85115,4.663066 6.2099,10.380203 6.77108,16.41174 z m -6.85508,22.400338 -8.7936,-8.811521 c 1.622702,-2.262383 2.70396,-4.866134 3.159896,-7.609286 L 108.3678,50.90545 c -0.58398,6.035651 -2.96557,11.764191 -6.83643,16.443906 z m -53.983573,-16.321237 12.468431,-0.0248 c 0.447123,2.740585 1.519767,5.338855 3.13477,7.593361 L 54.301862,67.43648 C 50.461611,62.769312 48.105783,57.056733 47.535877,51.029846 Z M 77.973616,35.73606 c 13.425086,-0.03658 17.052795,18.411308 4.656482,23.572562 -12.396313,5.161253 -22.834771,-10.451034 -13.32325,-19.96412 2.296683,-2.309815 5.417818,-3.609057 8.668471,-3.608446 z M 67.334501,62.811305 c 2.254315,1.619638 4.855621,2.692781 7.599427,3.135065 l -0.02481,12.474754 C 68.876288,77.858411 63.158421,75.497017 58.495596,71.64257 Z m 13.558666,3.123212 c 2.743968,-0.454407 5.347759,-1.538462 7.606852,-3.167012 l 8.802133,8.80299 c -4.678031,3.873297 -10.405422,6.257489 -16.440615,6.843898 z m 7.665702,-32.758385 c -2.254625,-1.62054 -4.856563,-2.694285 -7.601126,-3.136765 l 0.02482,-12.481572 c 6.032908,0.562415 11.750862,2.92385 16.413523,6.778554 z M 74.998503,30.05122 c -2.745586,0.453202 -5.351181,1.536701 -7.611957,3.165319 l -8.803835,-8.802993 c 4.678194,-3.87301 10.405499,-6.257173 16.440615,-6.843899 z m -11.817338,7.384708 c -1.62265,2.262412 -2.703901,4.866151 -3.159897,7.609286 l -12.473539,0.02481 c 0.591372,-6.029618 2.967565,-11.752781 6.824493,-16.437078 z M 50.348167,16.159425 c 1.162385,1.161046 1.158631,3.048767 -0.0084,4.214446 C 36.446924,34.279338 34.961131,56.285634 46.863379,71.827403 58.765373,87.368855 80.371526,91.635889 97.390935,81.815197 114.41034,71.994521 121.58044,51.122797 114.15088,33.000617 106.72118,14.878053 86.99105,5.1139478 68.01808,10.172995 64.173774,11.194374 62.66478,5.433398 66.509085,4.412019 82.042901,0.3132281 98.552818,4.7376434 109.9031,16.040974 122.773,28.911988 126.5922,48.30009 119.57969,65.163889 112.56719,82.027661 96.104101,93.045797 77.867232,93.082069 37.698908,93.161961 17.674146,44.633666 46.137538,16.1678 c 1.164308,-1.163055 3.046596,-1.167562 4.207227,-0.01007 z m 3.221339,-2.546984 c -0.847911,-1.401525 -0.400516,-3.229395 1.000766,-4.0887105 0.430723,-0.2630878 0.864833,-0.5182355 1.302334,-0.7654446 3.462517,-1.962835 6.385847,3.2197821 2.92333,5.1826171 -0.379548,0.215308 -0.756839,0.437422 -1.131873,0.666343 -1.406289,0.861388 -3.24013,0.420235 -4.092875,-0.984592 z m -4.141394,96.184069 -1.798409,0.51769 c -1.308028,0.3765 -8.276616,-3.52177 -11.402498,-6.05693 l -4.139744,-3.35746 c -0.07569,-0.0826 -0.146566,-0.16947 -0.212311,-0.2601 -0.04246,-0.0527 -0.09004,-0.10199 -0.129086,-0.15811 -0.246105,-0.35645 -0.410395,-0.763106 -0.481179,-1.190998 -0.01009,-0.06298 -0.01167,-0.127687 -0.01835,-0.190677 -0.01587,-0.154924 -0.01951,-0.310927 -0.01099,-0.466546 l 2.17e-4,-0.108979 c 0.252256,-2.200656 -1.604188,-4.057272 -3.804628,-3.805002 -0.961183,0.09778 -1.907303,-0.282107 -2.531496,-1.016645 -3.855353,-4.470304 -7.123911,-9.41563 -9.72682,-14.716684 -0.425465,-0.867956 -0.402483,-1.890125 0.06164,-2.74163 1.11227,-1.935282 0.128639,-4.394451 -2.007638,-5.019267 -0.923669,-0.290874 -1.64629,-1.01357 -1.937149,-1.937339 C 9.6595577,64.109978 8.6382772,58.75758 8.2464324,53.338658 8.176547,52.375903 8.5775623,51.437102 9.322398,50.81978 11.05821,49.436533 11.063446,46.803344 9.3331228,45.426991 8.5921178,44.812457 8.1955926,43.876186 8.2688668,42.914072 8.7148948,37.017241 9.9061427,31.197741 11.81414,25.594655 c 0.313759,-0.919915 1.055306,-1.631098 1.987358,-1.90598 2.149864,-0.590765 3.19271,-3.03173 2.129692,-4.984926 -0.447391,-0.861369 -0.445348,-1.88858 0.0055,-2.751735 2.515907,-4.824914 5.584764,-9.3421296 9.144369,-13.4600901 0.628518,-0.7350785 1.575094,-1.1183747 2.53556,-1.026723 2.198954,0.2420948 4.061863,-1.62099631 3.819793,-3.8201662 -0.0887,-0.9606335 0.293981,-1.9065047 1.026626,-2.5375109 4.484802,-3.8724741 9.441421,-7.1609668 14.750644,-9.7863808 0.87005,-0.429553 1.892811,-0.410634 2.742841,0.05074 1.926265,1.097751 4.379744,0.109344 5.016571,-2.020985 0.294282,-0.925076 1.019884,-1.650749 1.944869,-1.94506 5.184167,-1.649433 10.540039,-2.691522 15.959848,-3.105297 3.91202,-0.245362 4.335122,5.589462 0.430868,5.941915 -4.505268,0.343503 -8.963561,1.161714 -13.300717,2.441024 -2.139916,4.1434209 -6.989341,6.1011832 -11.389543,4.5980768 -3.997475,2.0848795 -7.765156,4.5854918 -11.240297,7.460186 -0.35522,4.6290681 -4.04141,8.3156189 -8.670025,8.670873 -2.595537,3.1294822 -4.887859,6.4980962 -6.845863,10.0601352 1.420665,4.438243 -0.638802,9.25923 -4.834146,11.316206 -1.360711,4.294882 -2.265506,8.719451 -2.699386,13.200365 3.021718,3.511702 3.011368,8.716024 -0.02434,12.239774 0.377927,4.049412 1.140186,8.052175 2.276483,11.954236 4.133957,2.124187 6.072054,6.965837 4.552358,11.372453 2.06659,3.990522 4.55153,7.748818 7.413102,11.211815 4.625776,0.335821 8.297098,4.005341 8.635615,8.631345 3.119143,2.582529 6.47831,4.861105 10.032002,6.804865 4.44448,-1.43996 9.258572,0.6017 11.297658,4.79135 5.90754,2.84626 13.165235,3.0908 18.704536,3.47681 3.765914,0.14321 3.473333,5.23217 -0.499165,5.18261 l -5.260316,-0.0656 c -5.50574,-0.47591 -10.933058,-1.60315 -16.168336,-3.35812 -0.919227,-0.31104 -1.627449,-1.05117 -1.897897,-1.98339 -0.282273,-1.01243 -1.005178,-1.84254 -1.968855,-2.26081 -0.629763,-0.26118 -1.324071,-0.32742 -1.993406,-0.19015 z M 144.61224,26.689363 c 1.63013,5.177862 2.6514,10.530259 3.04324,15.949182 0.0672,0.960727 -0.33422,1.896535 -1.07765,2.51207 -1.73438,1.383232 -1.73962,4.014742 -0.0107,5.391086 0.74239,0.614365 1.13968,1.551577 1.06596,2.514618 -0.54552,10.442419 -4.5462,20.708543 -7.66951,26.967164 -2.51451,4.826274 -5.58347,9.344219 -9.14437,13.461792 -3.99379,4.388652 -2.79527,3.402663 -7.37857,7.382695 -3.01631,2.6066 -6.24838,4.95206 -9.66107,7.01091 -1.65694,0.99603 -3.36995,1.93427 -5.09301,2.78399 -0.87191,0.42815 -1.89603,0.40541 -2.74452,-0.0609 -1.92794,-1.09601 -4.38107,-0.10521 -5.01658,2.02609 -0.29428,0.92509 -1.019885,1.65076 -1.944871,1.94506 -3.915088,1.24603 -7.93064,2.1463 -12.000401,2.69045 -3.955354,0.54692 -4.726356,-5.39608 -0.766355,-5.90719 3.272779,-0.43817 6.507939,-1.12775 9.67676,-2.0626 2.141082,-4.14311 6.990577,-6.1006 11.391247,-4.59808 1.1641,-0.60511 2.31466,-1.25106 3.43975,-1.9276 2.73339,-1.64748 5.34083,-3.496258 7.80055,-5.530888 0.17494,-2.239768 1.14549,-4.346138 2.73602,-5.937996 l 0.0171,-0.01366 v 0 c 0.0188,-0.01707 0.0392,-0.02903 0.058,-0.04779 1.58233,-1.548643 3.65726,-2.49263 5.86066,-2.666322 2.59581,-3.129273 4.88816,-6.497917 6.84586,-10.060135 -1.42326,-4.437901 0.63607,-9.260256 4.83245,-11.316203 1.36072,-4.294378 2.26607,-8.718324 2.70108,-13.198658 -3.02099,-3.511973 -3.01064,-8.715757 0.0243,-12.239774 -0.37934,-4.044875 -1.14217,-8.043039 -2.27821,-11.94061 -4.13421,-2.124829 -6.07224,-6.967054 -4.55235,-11.374163 -2.06592,-3.995148 -4.55087,-7.758035 -7.41308,-11.225438 -4.62751,-0.3376548 -8.2989,-4.0101219 -8.6356,-8.6381561 -3.11913,-2.5825323 -6.47831,-4.8611107 -10.03201,-6.8048689 -4.44357,1.4400327 -9.256938,-0.600902 -11.295961,-4.789646 -4.720473,-1.478921 -9.598566,-2.405188 -14.5367,-2.760273 -3.902883,-0.336925 -3.45657,-6.173478 0.454505,-5.943676 5.894528,0.423681 11.708703,1.592467 17.303756,3.47846 0.91826,0.310634 1.62624,1.049229 1.8979,1.979987 0.58007,2.148635 3.01759,3.182628 4.9743,2.110093 0.86282,-0.449406 1.88873,-0.451447 2.74977,-0.0055 4.81848,2.495556 9.32662,5.5468398 13.43273,9.0917762 0.72943,0.6286107 1.10819,1.5725826 1.01654,2.5334472 -0.24575,2.18786628 1.59201,4.0349264 3.7808,3.7999407 l 0.11237,-2.235e-4 c 0.14645,-0.00778 0.29333,-0.00467 0.43926,0.00934 0.0783,-1.557e-4 0.15663,0.0082 0.23492,0.021669 0.16816,0.030282 0.3332,0.074959 0.4935,0.1335397 0.0681,0.023704 0.13612,0.04911 0.20246,0.077926 0.16654,0.072685 0.32603,0.1607259 0.47622,0.2629868 0.0663,0.045844 0.12579,0.1019178 0.18868,0.1545795 0.0821,0.060371 0.16099,0.1250229 0.23628,0.1936493 7.27586,9.2806571 11.24621,17.0564951 13.7646,24.5678651 z"
       data-uid="o_f73l496ci_6"
       id="path11"
       sodipodi:nodetypes="ccscscccccccccccccccccccsccccccccccccccccccccccccccccccssscccsscccccccccccssccccccccccccccccccccccccccccccccccccccccccccccsccccccccccccccccccccccccccscccccccccccccccccccccccccccccc"
       style="stroke-width:1.70272" />
  </g>
</svg>
